<svg width="1067" height="1067" viewBox="0 0 1067 1067" fill="none" xmlns="http://www.w3.org/2000/svg">
<g clip-path="url(#clip0_4_2)">
<path d="M533.5 138.693L537.743 142.937L980.948 586.209C986.084 591.344 993.049 594.23 1000.31 594.23C1007.58 594.23 1014.54 591.344 1019.68 586.208C1024.81 581.073 1027.7 574.107 1027.7 566.844C1027.7 559.581 1024.81 552.616 1019.68 547.48C1019.68 547.48 1019.68 547.479 1019.68 547.479L862.696 390.564L860.938 388.807V386.321V166.719C860.938 159.467 858.057 152.512 852.929 147.384C847.801 142.256 840.846 139.375 833.594 139.375H766.906C759.654 139.375 752.699 142.256 747.571 147.384C742.443 152.512 739.562 159.467 739.562 166.719V252.946V267.431L729.32 257.188L576.406 104.275C565.025 92.8974 549.592 86.506 533.5 86.506C517.408 86.506 501.975 92.8973 490.594 104.274L533.5 138.693ZM533.5 138.693L529.257 142.937L86.0522 586.208C86.0521 586.209 86.052 586.209 86.0519 586.209C83.509 588.752 80.4901 590.769 77.1676 592.145C73.845 593.521 70.2839 594.23 66.6875 594.23C59.4243 594.23 52.4586 591.344 47.3228 586.208C44.7798 583.665 42.7625 580.646 41.3863 577.324C40.01 574.001 39.3016 570.44 39.3016 566.844C39.3016 563.247 40.01 559.686 41.3863 556.364C42.7625 553.041 44.7796 550.022 47.3225 547.479C47.3226 547.479 47.3227 547.479 47.3228 547.479L490.594 104.275L533.5 138.693Z" fill="black" stroke="white" stroke-width="12"/>
<path d="M139.375 622.212L533.5 228.087L927.625 622.212V900.281C927.625 925.22 917.718 949.137 900.084 966.771C882.45 984.406 858.532 994.313 833.594 994.313H233.406C208.468 994.313 184.55 984.406 166.916 966.771C149.282 949.137 139.375 925.22 139.375 900.281V622.212Z" fill="black" stroke="white" stroke-width="12"/>
<path d="M839.234 1051.69C829.824 1056.54 823.594 1058.79 818.476 1059.89C813.284 1061 808.956 1061 802.819 1061H802.695C789.657 1061 779.001 1057.83 771.737 1052.08C764.67 1046.49 760.199 1037.97 760.199 1025.71C760.199 1019.84 761.762 1013.85 765.459 1006.02C769.202 998.1 774.947 988.67 783.042 975.911L783.079 975.852L783.115 975.792L783.116 975.792L783.116 975.791L783.119 975.786L783.133 975.762L783.195 975.66C783.251 975.568 783.335 975.429 783.447 975.246C783.671 974.879 784.005 974.334 784.441 973.629C785.313 972.219 786.593 970.171 788.212 967.637C791.453 962.565 796.047 955.557 801.456 947.816C812.355 932.218 826.268 914.074 838.947 902.642C847.456 894.98 858.104 891.022 866.913 889.011C871.279 888.015 875.086 887.521 877.784 887.277C879.13 887.155 880.192 887.097 880.9 887.069C881.254 887.054 881.518 887.048 881.685 887.045C881.768 887.043 881.827 887.043 881.86 887.043L881.882 887.042H881.885H881.888H881.891H881.891H881.895H890.489H890.496H890.497H890.498L890.499 887.042H890.502H890.505L890.532 887.043C890.568 887.043 890.631 887.043 890.72 887.045C890.896 887.048 891.175 887.054 891.546 887.068C892.288 887.096 893.395 887.155 894.791 887.277C897.59 887.52 901.513 888.014 905.952 889.01C914.945 891.027 925.479 894.974 933.314 902.505C945.696 914.444 959.659 932.677 970.659 948.172C976.125 955.873 980.801 962.811 984.108 967.823C985.762 970.328 987.072 972.349 987.966 973.74C988.414 974.436 988.757 974.974 988.988 975.337C989.103 975.518 989.191 975.656 989.249 975.748L989.317 975.855L989.34 975.891L989.344 975.897C989.346 975.901 989.348 975.905 989.351 975.909C997.444 988.652 1003.18 998.078 1006.92 1006C1010.61 1013.83 1012.17 1019.82 1012.17 1025.69C1012.17 1037.95 1007.7 1046.47 1000.64 1052.06C993.377 1057.82 982.726 1060.98 969.689 1060.98C963.513 1060.98 959.072 1060.96 953.769 1059.81C948.566 1058.68 942.257 1056.39 932.839 1051.53C932.755 1051.47 932.663 1051.39 932.564 1051.32C932.018 1050.89 931.252 1050.33 930.255 1049.69C928.26 1048.4 925.347 1046.77 921.448 1045.21C913.667 1042.1 902.076 1039.3 886.186 1039.91C870.153 1039.31 858.485 1042.14 850.662 1045.29C846.742 1046.87 843.817 1048.52 841.815 1049.83C840.815 1050.48 840.046 1051.05 839.499 1051.48C839.404 1051.55 839.316 1051.62 839.234 1051.69ZM864.88 765.077C864.88 786.767 859.227 806.124 850.404 819.874C841.539 833.688 830.015 841.155 818.208 841.155C806.401 841.155 794.878 833.688 786.013 819.874C777.19 806.124 771.537 786.767 771.537 765.077C771.537 743.388 777.19 724.031 786.013 710.281C794.878 696.466 806.401 689 818.208 689C830.015 689 841.539 696.466 850.404 710.281C859.227 724.031 864.88 743.388 864.88 765.077ZM773.196 850.762C780.497 866.577 782.861 882.544 781.067 895.432C779.262 908.394 773.453 917.393 765.219 921.196C756.983 924.992 746.366 923.573 735.33 916.534C724.359 909.537 713.742 897.378 706.441 881.564C699.144 865.749 696.779 849.779 698.573 836.89C700.377 823.924 706.186 814.926 714.42 811.128C722.654 807.329 733.27 808.748 744.307 815.788C755.278 822.786 765.895 834.947 773.196 850.762ZM987.347 765.077C987.347 786.766 981.692 806.124 972.867 819.873C964 833.688 952.475 841.155 940.668 841.155C928.861 841.155 917.337 833.688 908.473 819.874C899.65 806.124 893.996 786.767 893.996 765.077C893.996 743.388 899.65 724.031 908.473 710.281C917.337 696.466 928.861 689 940.668 689C952.475 689 964 696.467 972.867 710.282C981.692 724.031 987.347 743.388 987.347 765.077ZM985.688 850.754C992.989 834.934 1003.6 822.772 1014.57 815.774C1025.61 808.735 1036.22 807.317 1044.46 811.12C1052.7 814.922 1058.51 823.924 1060.32 836.889C1062.12 849.779 1059.75 865.748 1052.45 881.563C1045.15 897.378 1034.53 909.539 1023.56 916.537C1012.53 923.576 1001.91 924.996 993.674 921.197C985.435 917.394 979.624 908.394 977.818 895.431C976.023 882.542 978.387 866.573 985.688 850.754Z" fill="#030104" stroke="white" stroke-width="12"/>
</g>
<defs>
<clipPath id="clip0_4_2">
<rect width="1067" height="1067" fill="white"/>
</clipPath>
</defs>
</svg>
