<svg width="1001" height="921" viewBox="0 0 1001 921" fill="none" xmlns="http://www.w3.org/2000/svg">
<path d="M547.648 20.0312C535.142 7.52926 518.183 0.506042 500.5 0.506042C482.817 0.506042 465.858 7.52926 453.352 20.0312L10.0801 463.236C6.97997 466.337 4.52078 470.017 2.84298 474.068C1.16519 478.118 0.301636 482.459 0.301636 486.844C0.301636 491.228 1.16519 495.569 2.84298 499.62C4.52078 503.671 6.97997 507.351 10.0801 510.451C16.3412 516.712 24.833 520.23 33.6875 520.23C38.0718 520.23 42.4132 519.366 46.4637 517.688C50.5143 516.01 54.1947 513.551 57.2949 510.451L500.5 67.1793L943.705 510.451C949.966 516.712 958.458 520.23 967.312 520.23C976.167 520.23 984.659 516.712 990.92 510.451C997.181 504.19 1000.7 495.698 1000.7 486.844C1000.7 477.989 997.181 469.497 990.92 463.236L833.937 306.321V86.7187C833.937 77.8754 830.424 69.3943 824.171 63.1412C817.918 56.888 809.437 53.375 800.594 53.375H733.906C725.063 53.375 716.582 56.888 710.329 63.1412C704.075 69.3943 700.562 77.8754 700.562 86.7187V172.946L547.648 20.0312Z" fill="black"/>
<path d="M500.5 139.602L900.625 539.727V820.281C900.625 846.811 890.086 872.255 871.327 891.014C852.567 909.774 827.124 920.312 800.594 920.312H200.406C173.876 920.312 148.433 909.774 129.673 891.014C110.914 872.255 100.375 846.811 100.375 820.281V539.727L500.5 139.602Z" fill="black"/>
<path d="M616.408 742.681C632.558 768.108 640.169 781.608 640.169 795.69C640.169 823.5 619.514 836.984 591.689 836.984C579.423 836.984 571.505 836.969 551.495 826.559C551.495 826.559 538.53 814.694 508.188 815.913C477.563 814.702 464.59 826.708 464.59 826.708C444.58 837.11 436.945 837 424.695 837C396.87 837 376.199 823.532 376.199 795.706C376.199 781.624 383.834 768.14 399.975 742.696C399.975 742.696 430.49 692.022 456.932 668.183C476.038 650.98 503.895 651.042 503.895 651.042H512.489C512.489 651.042 541.565 650.964 559.476 668.183C585.1 692.887 616.408 742.689 616.408 742.681ZM440.208 617.155C469.3 617.155 492.88 580.405 492.88 535.077C492.88 489.75 469.3 453 440.208 453C411.117 453 387.537 489.75 387.537 535.077C387.537 580.405 411.117 617.155 440.208 617.155ZM389.731 696.645C411.172 686.746 416.062 651.648 400.644 618.248C385.225 584.847 355.348 565.789 333.906 575.68C312.465 585.571 307.582 620.677 322.993 654.077C338.412 687.478 368.289 706.529 389.731 696.645ZM562.668 617.155C591.759 617.155 615.347 580.405 615.347 535.077C615.347 489.75 591.759 453 562.668 453C533.576 453 509.996 489.75 509.996 535.077C509.996 580.405 533.576 617.155 562.668 617.155ZM668.978 575.672C647.529 565.773 617.659 584.832 602.24 618.24C586.822 651.648 591.712 686.746 613.161 696.645C634.61 706.536 664.48 687.478 679.899 654.077C695.317 620.677 690.427 585.571 668.978 575.672Z" fill="white"/>
</svg>
